<svg xmlns="http://www.w3.org/2000/svg" width="292.32" height="292.33" shape-rendering="geometricPrecision" image-rendering="optimizeQuality" fill-rule="evenodd" viewBox="0 0 2394.82 2394.92" xmlns:v="https://vecta.io/nano"><path fill="#fcbc4b" d="M1192.78 2394.92S70.33 1870.43 177.75 439.69c0 0 446.41-9.26 547.28-439.69h935.52c100.86 430.43 547.28 439.69 547.28 439.69C2315.25 1870.42 1192.8 2394.92 1192.8 2394.92z"/><path fill="#f2f2f1" d="M351.67 594.49c-7.12 453.51 120.22 878.92 420.98 1232.55 104.57 122.95 266.62 271.36 420.24 363 150.64-89.92 311.44-236.69 413.72-355.62 305.06-354.75 434.45-782.93 427.29-1239.92-48.94-12.94-96.42-29.8-137.68-48.5-169.48-76.8-293.83-202.63-365.42-365.11H854.78C783.18 343.37 658.83 469.2 489.36 546c-41.26 18.7-88.74 35.55-137.68 48.5z"/><path fill="#4b9ed8" d="M447.47 665.48c6.75 406.58 130.35 784.63 398.15 1099.5 93.57 110.01 221.54 227.88 347.25 311.74 123.04-82.22 249.16-197.82 341.12-304.76 271.74-316 397.3-696.59 404.11-1106.48-27.68-9.51-54.95-20.25-81.42-32.24-167.5-75.9-300.33-197.06-385.71-356.57H914.61C829.23 436.18 696.39 557.34 528.9 633.24c-26.47 11.99-53.74 22.73-81.42 32.24z"/><path d="M631.48 2102.23l-237.79-86.41 219.07-65.69zm1131.87 0l237.78-86.41-219.07-65.69z" fill="#cc494c"/><path fill="#fff" fill-rule="nonzero" d="M1149.07 1624.78c-118.41 0-205.3-43.66-261.1-131.19-7.45-12.14-11.29-23.85-11.29-34.93 0-16.4 6.39-30.45 19.38-42.17 12.99-11.93 27.47-17.89 43.66-17.89 17.25 0 33.43 9.16 48.77 27.47 22.15 26.62 38.76 43.66 50.05 51.11 27.05 18.31 64.1 27.47 110.74 27.47 71.98 0 131.83-27.47 179.32-82.21 45.36-52.39 68.15-115.43 68.15-189.12 0-60.48-10.01-109.89-30.03-147.59-25.77-47.92-65.59-71.77-119.26-71.77-44.51 0-81.14 5.96-109.47 18.1-22.36 9.59-45.15 25.98-67.94 49.41l-68.15 74.33c-18.31 18.74-37.05 28.11-56.22 28.11-16.82 0-30.88-5.96-42.59-17.89-11.71-11.71-17.46-26.2-17.46-42.81 0-8.3 3.41-45.36 10.01-111.17 14.06-131.4 21.3-217.65 21.3-258.97 0-14.48-3.83-30.45-11.07-47.71-7.24-17.46-10.86-30.24-10.86-38.55 0-25.34 21.93-38.12 65.59-38.12 8.3 0 20.87.64 37.91 2.13 16.83 1.49 29.39 2.34 37.7 2.34 24.28 0 60.48-.85 108.83-2.55l108.61-2.56c11.29 0 28.33.43 51.33 1.28l51.33 1.28c7.88 0 19.38-1.71 34.29-4.69 14.91-3.19 26.2-4.68 33.65-4.68 16.4 0 30.67 5.96 43.23 18.1 12.57 11.92 18.74 25.77 18.74 41.53 0 46.64-49.41 69.85-148.23 69.85-12.78 0-29.18-.43-48.77-1.28l-35.56-1.28-105.63 1.92-105.85 3.2c0 18.74-7.67 88.38-23 208.5 57.08-45.36 133.1-67.94 227.88-67.94 91.57 0 161.64 35.78 209.99 107.34 40.68 60.7 61.12 138.22 61.12 232.14 0 112.45-32.8 205.09-98.6 277.92-68.36 75.6-158.45 113.51-270.47 113.51z"/><path fill="#ec6160" d="M1763.35 2102.23s368.85 90.96 500.5 166.4l-98.23-219.84 229.2-84.2s-265.19-121.51-332.11-121.62l70.16-243.23c-460.7-182.05-1410.23-182.05-1870.93 0l70.16 243.23c-66.92.11-332.11 121.62-332.11 121.62l229.2 84.2-98.23 219.84c131.65-75.44 500.5-166.4 500.5-166.4l-231.16-86.41c546.48-167.95 1047.71-167.95 1594.19 0l-231.16 86.41z"/><path fill="#fff" fill-rule="nonzero" d="M804.86 1631.18c-3.73 11-11.1 34.74-22.06 71.1-9.11 30.48-17.12 54.46-23.97 71.96l-19.21 48.33c-4.77 9.33-10.98 14.46-18.58 15.4-5.42.67-10.45-.52-14.99-3.56-5.05-3.44-7.93-8.03-8.65-13.9-.59-4.81 7.24-26.5 23.49-64.96-8.95-10.06-21.94-25.38-38.92-45.97l-56.05-68.6c-2.39-3.16-3.84-6.52-4.29-10.17-.71-5.77.93-10.86 4.85-15.4 3.71-4.16 8.34-6.58 13.87-7.26 6.48-.8 12.81 1.77 18.95 7.75l13.34 16.46c.8 1.08 11.09 14.53 30.81 40.23 12.45 16.42 23.3 29.33 32.47 38.64 5.64-16.07 13.66-40.3 24.02-72.74l9.52-32.64c2.65-9.38 8.54-14.63 17.61-15.74 5.42-.67 10.45.51 15.04 3.55 4.99 3.34 7.86 7.88 8.58 13.76.41 3.34-1.55 11.25-5.83 23.75zm186.09-23.37c-1.98.16-4.09.03-6.33-.34-16.43-2.99-32.28-3.83-47.49-2.56-7.48.62-15.42 1.84-23.86 3.72-8.5 1.88-17.4 4.42-26.88 7.56 1.1 13.28 2.33 33.04 3.69 59.31 5.51-.87 24.8-4.26 57.84-10.28 18.82-3.46 30.75-5.37 35.83-5.79 5.85-.49 11.04.98 15.52 4.34 4.48 3.37 6.98 8.18 7.49 14.34.98 11.85-4.77 19.09-17.25 21.71l-35.42 5.86c-14.01 2.7-35.12 6.35-63.37 10.95.44 12.66.97 22.81 1.61 30.55 1.62 19.48 3.65 30.42 6.12 32.94 1.23 1.18 7.54 1.32 18.98.37 6.16-.51 15.45-1.43 27.84-2.77l27.88-2.78c1.98-.16 4.86-.71 8.73-1.64 3.82-.88 6.69-1.42 8.57-1.58 5.75-.48 10.82.74 15.16 3.71 4.98 3.28 7.76 8.27 8.31 14.93.93 11.14-4.32 18.28-15.79 21.44-9.82 2.71-30.34 5.39-61.67 7.99-32.4 2.69-53.93.07-64.47-7.86-11.63-8.72-18.81-29.17-21.47-61.22-1.11-13.33-1.8-33.39-2.08-60.26-.28-26.81-.97-46.83-2.07-60.06-.29-3.51-1.18-8.61-2.65-15.3-1.48-6.74-2.37-11.84-2.66-15.35-1.25-15.11 5.09-23.21 18.97-24.37 4.32-.36 8.44.53 12.36 2.71 11.26-3.8 22.01-6.9 32.27-9.18 10.26-2.29 19.97-3.81 29.22-4.58 24.97-2.07 45.2-.88 60.68 3.57 9.39 2.7 14.5 8.63 15.25 17.73.43 5.14-.98 9.87-4.26 14.13-3.59 4.86-8.44 7.56-14.64 8.08zm228.39 192.67c-7.86-.24-15.91-9.46-24.03-27.66-5.36-11.74-10.02-25.28-13.93-40.61-7.39 1.19-19.53 2.42-36.31 3.69-15.81 1.26-27.89 2.69-36.25 4.3-4.55 11.01-12.36 27.62-23.61 49.77-4.32 7.24-10.31 10.86-18.07 10.93-5.46.05-10.43-1.8-14.8-5.49-4.42-3.69-6.66-8.47-6.71-14.23-.04-5.1 7.1-22.42 21.44-51.99-1.45-3.1-2.04-6-1.91-8.71.37-4.75 5.18-8.57 14.45-11.35 13.97-24.67 29.52-50.28 46.7-76.77 24.63-38.04 39.87-57.11 45.64-57.16 10.92-.1 18.33 6.47 22.12 19.71l9.86 47.94 23.12 98.46c.74 2.75 3.35 9.31 7.83 19.68 3.65 8.55 5.49 14.96 5.53 19.25.05 5.77-2.05 10.64-6.36 14.6-4.3 3.92-9.24 5.8-14.7 5.64zm-57.08-153.04l-31.68 54.89c4.49-1.01 11.47-1.89 20.91-2.53l21.06-1.81-10.29-50.55zm262.16 155.97c-5.4-.24-10.21-2.54-14.51-6.92-28.94-29.63-61.26-50.73-96.93-63.29l-.6 48.31c-.25 5.66-2.45 10.36-6.55 14.12-4.1 3.75-9.08 5.52-15 5.26s-10.72-2.47-14.48-6.57-5.53-8.98-5.28-14.64l1.68-33.55 1.68-33.54 5.53-120.53c.29-6.48 2.49-12.26 6.59-17.33 5.4-6.56 12.52-9.31 21.46-8.2l37.05 4.5c13.9 2.3 25.58 6.14 35.1 11.56 41.58 23.29 61.67 50.75 60.27 82.47-.58 13-5.52 24.38-14.89 33.98-9.36 9.6-23.1 17.47-41.25 23.52 25.76 15.96 44.93 31.87 57.61 47.81 3.29 4.13 4.83 8.65 4.62 13.49-.25 5.61-2.55 10.31-6.91 14.15s-9.45 5.66-15.21 5.41zm-87.31-192.12c-.81-.14-6.61-.75-17.44-1.95l-3.5 79.24c2.49.21 4.68.36 6.57.44 24.37 1.08 42.56-1.19 54.61-6.73 5.16-2.33 10-5.59 14.43-9.68 4.42-4.04 6.65-7.22 6.75-9.41.49-11.12-6.12-22.19-19.79-33.16-12.98-10.33-26.91-16.57-41.63-18.75zm199.24 208.9c-25.14-2.48-44.4-10.02-57.77-22.63-11.27-10.55-16.31-21.87-15.1-34.06.62-6.25 3.01-11.25 7.17-14.99s9.6-5.26 16.2-4.61c8.94.88 14.99 6.1 18.25 15.65 4.44 12.74 16.58 20.1 36.49 22.06 17.02 1.68 33.84-.4 50.47-6.3 17.26-5.99 26.37-13.61 27.27-22.75 1.23-12.5-3.08-21.23-13-26.21-7.03-3.62-21.54-6.74-43.59-9.43-17.08-2.1-32.1-6.81-45.06-14.24-17.53-10.04-25.35-22.71-23.53-38.07 2.21-19.32 14.27-36.03 36.13-50.18 21.91-14.09 45.1-19.96 69.59-17.55 9.7.96 21.47 4.38 35.25 10.25 17.18 7.28 25.43 14.61 24.72 21.83-.51 5.18-2.74 9.58-6.69 13.19-4.41 4.08-9.76 5.81-15.95 5.2-4.67-.46-11.53-2.16-20.58-5.11-9.04-2.94-15.96-4.65-20.73-5.12-12.76-1.15-25.2.75-37.28 5.66-12.49 5.02-19.1 11.14-19.82 18.4-.38 3.81 1.15 7.09 4.51 9.88 3.37 2.8 8.63 5.06 15.75 6.78l37.69 5.82c21.83 3.85 38.64 11.76 50.38 23.74 12.9 13.27 18.28 30.42 16.2 51.45-2.52 25.55-19.01 43.52-49.41 53.8-23.18 7.82-49.02 10.34-77.57 7.52zm347.34-62.25c-1.58-.32-3.93-1.09-6.99-2.22-3.13-1.14-5.5-1.84-7.29-2.2-3.64-.75-9.02-1.77-16.21-3.03l-16.36-2.98c-.77 4.49-1.98 10.4-3.61 17.66l-3.77 17.41c-1.38 6.73-5.01 11.87-10.78 15.27-5.8 3.47-12.36 4.42-19.71 2.92-7.29-1.49-12.94-5.01-16.91-10.47-3.95-5.54-5.26-11.74-3.86-18.62-.37 1.79 1.87-9.86 6.68-34.79-10.15-1.5-19-3.03-26.49-4.56-9.55-1.95-17.64-5.47-24.28-10.47-8.38-6.29-11.69-13.56-10.01-21.81 2.14-10.45 7.8-16.45 17.05-17.92 5.11-.82 14 .14 26.93 2.78 7.63 1.56 16.49 3.08 26.5 4.55.28-1.37.76-4.07 1.44-8.08l1.82-9.94c5.48-26.81 17.29-38.35 35.44-34.65 7.08 1.45 12.82 4.91 17.15 10.31 4.33 5.47 5.88 11.51 4.5 18.25-.43 2.13-1.38 5.37-2.78 9.74-1.34 4.45-2.3 7.76-2.77 10.03l-2.68 14.13c3.06.77 5.39 1.32 6.97 1.64 2.68.55 6.76 1.24 12.25 2.07 5.49.84 9.64 1.54 12.45 2.12 27.36 5.59 39.34 16.7 35.94 33.34-1.35 6.6-4.78 11.84-10.37 15.7-6.06 4.06-12.76 5.34-20.25 3.81z"/></svg>