<svg xmlns="http://www.w3.org/2000/svg" width="250.15" height="292.33" shape-rendering="geometricPrecision" image-rendering="optimizeQuality" fill-rule="evenodd" viewBox="0 0 3261.81 3811.79" xmlns:v="https://vecta.io/nano"><path fill="#ffdb70" d="M0 669.03v849.98c0 359.51 116.66 771.4 264.28 1066.63 16.66 33.33 28.57 50 45.23 83.33 28.57 54.76 57.14 102.38 90.48 154.76 30.95 50 64.28 97.61 100 145.23 150 199.99 288.08 340.47 480.94 495.23 178.56 142.85 328.56 223.8 535.7 321.42 33.33 16.67 64.28 23.81 92.85 26.19h40.48c54.76-4.76 107.14-28.57 171.42-61.9 152.37-76.19 323.8-173.8 454.75-280.94l66.66-52.38c23.81-21.43 42.86-35.71 64.28-57.14l126.19-119.05c126.19-123.81 276.18-326.18 369.04-480.94 111.91-190.48 199.99-388.09 259.52-602.37 54.76-190.47 100-426.18 100-638.08V676.17c0-45.23-14.29-73.81-30.95-102.37-19.05-38.1-33.33-52.38-64.29-76.19-57.14-40.48-114.28-71.42-176.18-109.52C2628.51 171.43 2121.38.01 1697.58.01c-426.18 0-664.27 52.38-1047.59 204.75-111.91 42.86-271.42 123.81-373.8 183.33-59.52 38.1-111.9 66.66-169.04 104.76C47.63 533.33.01 599.99.01 669.03z"/><path fill="#f9b444" d="M402.03 792.03c-9.53 164.28-2.39 780.93 16.67 940.45 61.9 492.84 302.37 964.26 640.46 1280.91 80.95 78.57 161.9 145.23 261.9 214.28 42.86 30.95 261.9 173.8 307.13 176.19 40.48 4.76 271.42-145.23 304.76-169.04 276.18-195.24 526.17-457.13 678.55-764.26 295.23-590.46 249.99-969.02 249.99-1678.52-52.38-42.86-183.33-107.14-257.13-142.85-673.79-321.42-1266.63-321.42-1940.42-2.38-76.19 35.71-200 97.61-261.9 145.23z"/><path fill="#fff" d="M1547.57 892.83v28.57c-245.23 45.24-433.32 164.28-435.7 440.46-2.38 295.23 190.47 366.65 435.7 440.46v314.27c-90.47-16.67-252.37-142.85-299.99-185.71l-197.62 242.85c33.33 45.24 150 119.04 216.66 154.76 85.71 45.24 173.81 69.04 278.56 92.86l2.39 159.52h219.04c4.76-228.57-26.19-114.28 176.18-192.85 154.76-59.52 283.32-192.85 285.71-392.84 2.38-150-52.38-249.99-133.33-314.28-71.42-57.14-209.51-116.67-319.04-138.09V1233.3c114.29 16.66 178.57 85.71 259.52 123.81 28.57-59.52 150-209.52 169.04-254.75-133.33-64.28-211.89-142.85-428.56-171.42V821.42l-228.56-2.38v73.81zm221.42 1240.44c150-33.33 150-219.04 0-257.13v257.13zm-221.42-666.65v-247.61c-133.33 30.95-119.05 207.14 0 247.61z"/><path d="M613.26 744.76l49.56 103.65 113.89 15.11-83.26 79.15 20.83 112.99-101.02-54.72-101.02 54.72 20.84-112.98-83.27-79.16 113.89-15.11zm726.01 2062.79l49.55 103.65 113.9 15.11-83.27 79.16 20.84 112.98-101.02-54.72-101.02 54.72 20.83-112.98-83.26-79.16 113.89-15.11zm-386.45-417.19l49.56 103.66 113.89 15.1-83.27 79.16 20.84 112.99-101.02-54.73-101.02 54.73 20.84-112.99-83.27-79.16 113.89-15.1zm-246.06-512.94l49.55 103.65 113.9 15.1-83.27 79.16 20.83 112.99-101.01-54.73-101.02 54.73 20.83-112.99-83.26-79.16 113.89-15.1zm-88.5-561.84l49.55 103.65 113.89 15.1-83.26 79.16 20.83 112.99-101.01-54.73-101.02 54.73 20.83-112.98-83.26-79.17 113.89-15.1zm2030.29-570.82l-49.56 103.65-113.89 15.11 83.26 79.15-20.83 112.99 101.02-54.72 101.02 54.72-20.84-112.98 83.27-79.16-113.89-15.11zm-726.01 2062.79l-49.55 103.65-113.9 15.11 83.27 79.16-20.84 112.98 101.02-54.72 101.02 54.72-20.83-112.98 83.26-79.16-113.89-15.11zm386.44-417.19l-49.55 103.66-113.89 15.1 83.26 79.16-20.83 112.99 101.01-54.73 101.02 54.73-20.83-112.99 83.26-79.16-113.89-15.1zm246.07-512.94l-49.55 103.65-113.9 15.1 83.27 79.16-20.83 112.99 101.01-54.73 101.02 54.73-20.83-112.99 83.26-79.16-113.89-15.1zm88.5-561.84l-49.56 103.65-113.89 15.1 83.26 79.16-20.83 112.99 101.02-54.73 101.02 54.73-20.84-112.98 83.27-79.17-113.89-15.1z" fill="#ffdb70"/></svg>