<svg xmlns="http://www.w3.org/2000/svg" width="292.35" height="292.35" shape-rendering="geometricPrecision" image-rendering="optimizeQuality" fill-rule="evenodd" viewBox="0 0 10359.9 10359.89" xmlns:v="https://vecta.io/nano"><path fill="#109138" d="M3786.91 672.98c-830.08 0-1148.85-381.47-1584.71 555.97-384.09 826.05-259.9 625.84-1078.79 1036.98-788.14 395.7-447.93 759.12-447.93 1518.51 0 298.48-181.85 499.82-316.5 679.17-463.45 617.27-494.73 788.52 3.42 1426.11 562.39 719.82 263.3 727.63 263.3 1553.79 0 178.2 65.22 321.47 154.78 417.72 425.52 457.24 1025.08 262.99 1324.39 990.53 175.24 425.96 343.9 906.67 835.73 906.67 792.35 0 806.83-297.75 1525.48 241.82 746.18 560.25 856.97 419.65 1575.22-103.22 71.4-52 65.04-53.95 151.21-97.7 476.39-241.95 691.18-40.91 1228.57-40.91 803.44 0 637.7-974.02 1215.55-1373.17 63.74-44.03 120.31-66.53 194.78-103.93 339.1-170.32 929.46-286.31 929.46-837.82 0-668.49-285.64-911.27 243-1549.2 474.72-572.84 474.72-859.04 0-1431.88-527.82-636.93-243-882.92-243-1524.3 0-724.41-859.96-704.04-1251.38-1063.54C8143.41 1538.35 8144.1 598.3 7445.97 598.3c-536.73 0-782.62 195.66-1236.75-32.72-105.85-53.23-225.3-138.07-312.43-210.28-1152.44-955.03-1296.03 317.67-2109.86 317.67z"/><path fill="#1fbe54" d="M4947.19 1801.29c-1790.2 127.93-3288.95 1672.84-3142.4 3626.23 133.51 1779.42 1667.07 3262.13 3616.17 3127.77 1782.89-122.9 3272.79-1676.17 3137.6-3611.5-124.78-1786.42-1667.66-3281.41-3611.38-3142.5z"/><path fill="#fff" d="M6723.99 3509.1c574.03-225.04 1135.3 363.83 896.57 896.58-163.88 365.8-1991.41 2144.11-2372.1 2542.76-584.44 607.27-934.35 333.13-1418.22-216.33l-731.31-750.38c-172.57-174.41-368.26-305.91-393.09-619.63-35.09-443.12 373.34-778.39 790.69-717.58 132.21 19.26 246.13 82.71 343.49 158.53 210.11 215.57 597.93 660.45 798.96 795.07 54.55-36.53 91.27-82.43 140.18-130.85 279.07-293.33 1674.9-1852.37 1944.82-1958.18z"/></svg>