<?xml version="1.0" standalone="no"?>
<!DOCTYPE svg PUBLIC "-//W3C//DTD SVG 1.1//EN" "http://www.w3.org/Graphics/SVG/1.1/DTD/svg11.dtd" >
<svg xmlns="http://www.w3.org/2000/svg">
<defs>
  <font id="luicon" horiz-adv-x="256">
    <font-face font-family="luicon"
      units-per-em="256" ascent="256"
      descent="0" />
    <missing-glyph horiz-adv-x="0" />
    <glyph glyph-name="apps"
      unicode="&#xEA01;"
      horiz-adv-x="256" d="M170.664 42.664H213.336V85.336H170.664M170.664 106.664H213.336V149.336H170.664M106.664 170.664H149.336V213.336H106.664M170.664 170.664H213.336V213.336H170.664M106.664 106.664H149.336V149.336H106.664M42.664 106.664H85.336V149.336H42.664M42.664 42.664H85.336V85.336H42.664M106.664 42.664H149.336V85.336H106.664M42.664 170.664H85.336V213.336H42.664V170.664z" />
    <glyph glyph-name="chevron-double-left"
      unicode="&#xEA02;"
      horiz-adv-x="256" d="M196.376 176.96L181.336 192L117.336 128L181.336 64L196.376 79.04L147.52 128L196.376 176.96M132.376 176.96L117.336 192L53.336 128L117.336 64L132.376 79.04L83.52 128L132.376 176.96z" />
    <glyph glyph-name="chevron-double-right"
      unicode="&#xEA03;"
      horiz-adv-x="256" d="M59.624 176.96L74.664 192L138.664 128L74.664 64L59.624 79.04L108.48 128L59.624 176.96M123.624 176.96L138.664 192L202.664 128L138.664 64L123.624 79.04L172.48 128L123.624 176.96z" />
    <glyph glyph-name="chevron-down"
      unicode="&#xEA04;"
      horiz-adv-x="256" d="M79.04 164.48L128 115.52L176.96 164.48L192 149.336L128 85.336L64 149.336L79.04 164.48z" />
    <glyph glyph-name="chevron-left"
      unicode="&#xEA05;"
      horiz-adv-x="256" d="M164.376 79.144L115.52 128L164.376 176.96L149.336 192L85.336 128L149.336 64L164.376 79.144z" />
    <glyph glyph-name="chevron-right"
      unicode="&#xEA06;"
      horiz-adv-x="256" d="M91.624 79.144L140.48 128L91.624 176.96L106.664 192L170.664 128L106.664 64L91.624 79.144z" />
    <glyph glyph-name="chevron-up"
      unicode="&#xEA07;"
      horiz-adv-x="256" d="M79.04 91.624L128 140.48L176.96 91.624L192 106.664L128 170.664L64 106.664L79.04 91.624z" />
    <glyph glyph-name="close"
      unicode="&#xEA08;"
      horiz-adv-x="256" d="M202.664 187.624L187.624 202.664L128 143.04L68.376 202.664L53.336 187.624L112.96 128L53.336 68.376L68.376 53.336L128 112.96L187.624 53.336L202.664 68.376L143.04 128L202.664 187.624z" />
    <glyph glyph-name="dots-horizontal"
      unicode="&#xEA09;"
      horiz-adv-x="256" d="M170.664 128C170.664 139.736 180.264 149.336 192 149.336S213.336 139.736 213.336 128S203.736 106.664 192 106.664S170.664 116.264 170.664 128M106.664 128C106.664 139.736 116.264 149.336 128 149.336S149.336 139.736 149.336 128S139.736 106.664 128 106.664S106.664 116.264 106.664 128M42.664 128C42.664 139.736 52.264 149.336 64 149.336S85.336 139.736 85.336 128S75.736 106.664 64 106.664S42.664 116.264 42.664 128z" />
    <glyph glyph-name="dots-vertical"
      unicode="&#xEA0A;"
      horiz-adv-x="256" d="M128 85.336C139.736 85.336 149.336 75.736 149.336 64S139.736 42.664 128 42.664S106.664 52.264 106.664 64S116.264 85.336 128 85.336M128 149.336C139.736 149.336 149.336 139.736 149.336 128S139.736 106.664 128 106.664S106.664 116.264 106.664 128S116.264 149.336 128 149.336M128 213.336C139.736 213.336 149.336 203.736 149.336 192S139.736 170.664 128 170.664S106.664 180.264 106.664 192S116.264 213.336 128 213.336z" />
    <glyph glyph-name="fullscreen"
      unicode="&#xEA0B;"
      horiz-adv-x="256" d="M53.336 202.664H106.664V181.336H74.664V149.336H53.336V202.664M149.336 202.664H202.664V149.336H181.336V181.336H149.336V202.664M181.336 106.664H202.664V53.336H149.336V74.664H181.336V106.664M106.664 74.664V53.336H53.336V106.664H74.664V74.664H106.664z" />
    <glyph glyph-name="fullscreen-exit"
      unicode="&#xEA0C;"
      horiz-adv-x="256" d="M149.336 106.664H202.664V85.336H170.664V53.336H149.336V106.664M53.336 106.664H106.664V53.336H85.336V85.336H53.336V106.664M85.336 202.664H106.664V149.336H53.336V170.664H85.336V202.664M202.664 170.664V149.336H149.336V202.664H170.664V170.664H202.664z" />
    <glyph glyph-name="image"
      unicode="&#xEA0D;"
      horiz-adv-x="256" d="M90.664 112L117.336 80L154.664 128L202.664 64H53.336M224 53.336V202.664C224 214.504 214.4 224 202.664 224H53.336A21.4 21.4 0 0 1 32 202.664V53.336C32 41.6 41.6 32 53.336 32H202.664C214.4 32 224 41.6 224 53.336z" />
    <glyph glyph-name="magnify-minus-outline"
      unicode="&#xEA0E;"
      horiz-adv-x="256" d="M165.336 106.664H156.904L153.92 109.544A69.024 69.024 0 0 1 170.664 154.664A69.336 69.336 0 1 1 101.328 85.328C118.504 85.328 134.288 91.624 146.448 102.08L149.328 99.096V90.664L202.664 37.336L218.664 53.336L165.336 106.664M101.336 106.664C74.664 106.664 53.336 128 53.336 154.664S74.664 202.664 101.336 202.664S149.336 181.336 149.336 154.664S128 106.664 101.336 106.664M74.664 160H128V149.336H74.664V160z" />
    <glyph glyph-name="magnify-plus-outline"
      unicode="&#xEA0F;"
      horiz-adv-x="256" d="M165.336 106.664L218.664 53.336L202.664 37.336L149.336 90.664V99.096L146.456 102.08A69.024 69.024 0 0 0 101.336 85.336A69.336 69.336 0 1 0 170.672 154.672C170.672 137.496 164.376 121.712 153.92 109.552L156.904 106.672H165.336M101.336 106.672C128 106.672 149.336 128 149.336 154.672S128 202.672 101.336 202.672S53.336 181.336 53.336 154.672S74.664 106.672 101.336 106.672M128 149.328H106.664V128H96V149.336H74.664V160H96V181.336H106.664V160H128V149.336z" />
    <glyph glyph-name="menu-down"
      unicode="&#xEA10;"
      horiz-adv-x="256" d="M74.664 149.336L128 96L181.336 149.336H74.664z" />
    <glyph glyph-name="menu-left"
      unicode="&#xEA11;"
      horiz-adv-x="256" d="M149.336 181.336L96 128L149.336 74.664V181.336z" />
    <glyph glyph-name="menu-right"
      unicode="&#xEA12;"
      horiz-adv-x="256" d="M106.664 74.664L160 128L106.664 181.336V74.664z" />
    <glyph glyph-name="menu-up"
      unicode="&#xEA13;"
      horiz-adv-x="256" d="M74.664 96L128 149.336L181.336 96H74.664z" />
    <glyph glyph-name="pause-circle-outline"
      unicode="&#xEA14;"
      horiz-adv-x="256" d="M138.664 85.336V170.664H160V85.336H138.664M96 85.336V170.664H117.336V85.336H96M128 234.664C186.88 234.664 234.664 186.88 234.664 128S186.88 21.336 128 21.336S21.336 69.12 21.336 128S69.12 234.664 128 234.664M128 213.336C80.856 213.336 42.664 175.144 42.664 128S80.856 42.664 128 42.664S213.336 80.856 213.336 128S175.144 213.336 128 213.336z" />
    <glyph glyph-name="play-circle-outline"
      unicode="&#xEA15;"
      horiz-adv-x="256" d="M128 42.664C80.96 42.664 42.664 80.96 42.664 128S80.96 213.336 128 213.336S213.336 175.04 213.336 128S175.04 42.664 128 42.664M128 234.664C69.12 234.664 21.336 186.88 21.336 128S69.12 21.336 128 21.336S234.664 69.12 234.664 128S186.88 234.664 128 234.664M106.664 80L170.664 128L106.664 176V80z" />
    <glyph glyph-name="unfold-more"
      unicode="&#xEA16;"
      horiz-adv-x="256" d="M128 62.184L94.184 96L79.144 80.96L128 32L176.96 80.96L161.816 96M128 193.816L161.816 160L176.856 175.04L128 224L79.04 175.04L94.184 160L128 193.816z" />
  </font>
</defs>
</svg>
